<svg width="62" height="62" viewBox="0 0 62 62" fill="none" xmlns="http://www.w3.org/2000/svg">
<path fill-rule="evenodd" clip-rule="evenodd" d="M62 31C62 48.1208 48.1208 62 31 62C13.8792 62 0 48.1208 0 31C0 13.8792 13.8792 0 31 0C48.1208 0 62 13.8792 62 31Z" fill="#E84142"/>
<path fill-rule="evenodd" clip-rule="evenodd" d="M22.2162 43.3359H16.2C14.9358 43.3359 14.3113 43.3359 13.9305 43.0922C13.5193 42.8256 13.268 42.3839 13.2375 41.8965C13.2147 41.4472 13.5269 40.8989 14.1514 39.8022L29.0062 13.6186C29.6383 12.5067 29.9581 11.9508 30.3618 11.7452C30.7959 11.5244 31.3137 11.5244 31.7478 11.7452C32.1514 11.9508 32.4713 12.5067 33.1034 13.6186L36.1572 18.9494L36.1728 18.9767C36.8555 20.1695 37.2017 20.7744 37.3528 21.4092C37.5203 22.1022 37.5203 22.8333 37.3528 23.5263C37.2005 24.1661 36.8578 24.7753 36.1648 25.9862L28.3619 39.7794L28.3417 39.8148C27.6545 41.0174 27.3062 41.6269 26.8235 42.0869C26.2981 42.5896 25.6661 42.955 24.973 43.1607C24.341 43.3359 23.6327 43.3359 22.2162 43.3359Z" fill="white"/>
<path fill-rule="evenodd" clip-rule="evenodd" d="M37.4085 43.3366H46.0292C47.3011 43.3366 47.9407 43.3366 48.3215 43.0853C48.7327 42.8187 48.9916 42.3694 49.0145 41.882C49.0366 41.4475 48.7311 40.9204 48.1325 39.8876C48.112 39.8523 48.0912 39.8166 48.0702 39.7802L43.7522 32.3931L43.703 32.3101C43.0963 31.2839 42.7898 30.7657 42.3966 30.5654C41.9625 30.3446 41.4524 30.3446 41.0183 30.5654C40.6222 30.771 40.3023 31.3117 39.6703 32.4007L35.3675 39.7877L35.3528 39.8132C34.7229 40.9005 34.4081 41.4438 34.4308 41.8897C34.4613 42.3771 34.7126 42.8264 35.1239 43.0929C35.497 43.3366 36.1366 43.3366 37.4085 43.3366Z" fill="white"/>
</svg>
