<svg width="62" height="62" viewBox="0 0 62 62" fill="none" xmlns="http://www.w3.org/2000/svg">
<path fill-rule="evenodd" clip-rule="evenodd" d="M44.1005 20.7663C43.9017 20.8542 43.6872 20.8998 43.4703 20.9H11.1248C10.9706 20.8999 10.8197 20.8542 10.6906 20.7685C10.5616 20.6829 10.46 20.561 10.3983 20.4177C10.3365 20.2744 10.3174 20.116 10.3432 19.9619C10.369 19.8078 10.4385 19.6646 10.5434 19.5499L17.359 12.1363C17.5066 11.9753 17.6853 11.8468 17.8841 11.7589C18.0828 11.6709 18.2974 11.6254 18.5142 11.6252H50.8598C51.0153 11.6219 51.1686 11.6654 51.2999 11.7501C51.4312 11.8349 51.5352 11.9571 51.5979 12.1014C51.6611 12.2457 51.6803 12.4057 51.6538 12.5612C51.6272 12.7167 51.556 12.8607 51.4489 12.9752L44.6255 20.3888C44.4779 20.5498 44.2992 20.6784 44.1005 20.7663ZM44.6255 26.226C44.4774 26.0657 44.2985 25.9378 44.0999 25.8498C43.9013 25.762 43.6871 25.7161 43.4703 25.7149H11.1248C10.9706 25.715 10.8197 25.7606 10.6906 25.8463C10.5616 25.932 10.46 26.0539 10.3983 26.1972C10.3365 26.3405 10.3174 26.4988 10.3432 26.653C10.369 26.8071 10.4385 26.9503 10.5434 27.065L17.359 34.4825C17.5072 34.6428 17.686 34.7707 17.8846 34.8587C18.0833 34.9465 18.2975 34.9925 18.5142 34.9936H50.8598C51.0138 34.9928 51.164 34.9465 51.2926 34.8606C51.4212 34.7746 51.5221 34.6527 51.5833 34.5096C51.6445 34.3664 51.6634 34.2083 51.6372 34.0546C51.6114 33.9008 51.5421 33.758 51.4374 33.6436L44.6255 26.226ZM51.4489 41.1585L44.6255 48.5721C44.4779 48.7332 44.2992 48.8617 44.1005 48.9496C43.9017 49.0375 43.6872 49.0831 43.4703 49.0833H11.1248C10.9706 49.0832 10.8197 49.0375 10.6906 48.9519C10.5616 48.8662 10.46 48.7443 10.3983 48.601C10.3365 48.4577 10.3174 48.2994 10.3432 48.1452C10.369 47.9911 10.4385 47.8479 10.5434 47.7332L17.359 40.3196C17.5066 40.1586 17.6853 40.0301 17.8841 39.9422C18.0828 39.8542 18.2974 39.8087 18.5142 39.8085H50.8598C51.0153 39.8052 51.1686 39.8487 51.2999 39.9335C51.4312 40.0182 51.5352 40.1404 51.5979 40.2847C51.6611 40.429 51.6803 40.589 51.6538 40.7445C51.6272 40.9 51.556 41.0441 51.4489 41.1585Z" fill="url(#paint0_linear_10685_11040)"/>
<defs>
<linearGradient id="paint0_linear_10685_11040" x1="35.1973" y1="65.3454" x2="65.1179" y2="23.7267" gradientUnits="userSpaceOnUse">
<stop offset="0.08" stop-color="#9945FF"/>
<stop offset="0.3" stop-color="#8752F3"/>
<stop offset="0.5" stop-color="#5497D5"/>
<stop offset="0.6" stop-color="#43B4CA"/>
<stop offset="0.72" stop-color="#28E0B9"/>
<stop offset="0.97" stop-color="#19FB9B"/>
</linearGradient>
</defs>
</svg>
