<svg width="78" height="78" viewBox="0 0 78 78" fill="none" xmlns="http://www.w3.org/2000/svg">
<path d="M9.75 22.7501C9.75 21.0262 10.4348 19.3729 11.6538 18.1539C12.8728 16.9349 14.5261 16.2501 16.25 16.2501H61.75C63.4739 16.2501 65.1272 16.9349 66.3462 18.1539C67.5652 19.3729 68.25 21.0262 68.25 22.7501V29.2501H55.25C52.6641 29.2501 50.1842 30.2774 48.3557 32.1058C46.5272 33.9343 45.5 36.4143 45.5 39.0001C45.5 41.586 46.5272 44.0659 48.3557 45.8944C50.1842 47.7229 52.6641 48.7501 55.25 48.7501H68.25V55.2501C68.25 56.974 67.5652 58.6273 66.3462 59.8463C65.1272 61.0653 63.4739 61.7501 61.75 61.7501H16.25C14.5261 61.7501 12.8728 61.0653 11.6538 59.8463C10.4348 58.6273 9.75 56.974 9.75 55.2501V22.7501Z" fill="#C4FFE6"/>
<path fill-rule="evenodd" clip-rule="evenodd" d="M48.75 38.9999C48.75 37.276 49.4348 35.6227 50.6538 34.4037C51.8728 33.1847 53.5261 32.4999 55.25 32.4999H68.25C69.112 32.4999 69.9386 32.8423 70.5481 33.4518C71.1576 34.0613 71.5 34.8879 71.5 35.7499V42.2499C71.5 43.1118 71.1576 43.9385 70.5481 44.548C69.9386 45.1575 69.112 45.4999 68.25 45.4999H55.25C53.5261 45.4999 51.8728 44.8151 50.6538 43.5961C49.4348 42.3771 48.75 40.7238 48.75 38.9999ZM58.5 38.9999C58.5 39.8618 58.1576 40.6885 57.5481 41.298C56.9386 41.9075 56.112 42.2499 55.25 42.2499C54.388 42.2499 53.5614 41.9075 52.9519 41.298C52.3424 40.6885 52 39.8618 52 38.9999C52 38.1379 52.3424 37.3113 52.9519 36.7018C53.5614 36.0923 54.388 35.7499 55.25 35.7499C56.112 35.7499 56.9386 36.0923 57.5481 36.7018C58.1576 37.3113 58.5 38.1379 58.5 38.9999Z" fill="#C4FFE6"/>
</svg>
