<svg width="78" height="91" viewBox="0 0 78 91" fill="none" xmlns="http://www.w3.org/2000/svg">
<path d="M70.513 1H7.31937L1 9.84711M70.513 1L76.8324 9.84711L51.5549 45.2356M70.513 1L45.2356 36.3885M1 9.84711H51.5549L38.9162 27.5413L32.5968 18.6942M1 9.84711L32.5968 54.0827L7.31937 89.4711M1 9.84711L45.2356 71.7769H32.5968H57.8743L19.9581 18.6942M32.5968 18.6942L57.8743 54.0827M32.5968 18.6942L76.8324 80.624M45.2356 18.6942H19.9581M19.9581 18.6942L45.2356 54.0827M76.8324 80.624L70.513 89.4711H7.31937M76.8324 80.624H26.2775L38.9162 62.9298M7.31937 89.4711L1 80.624L26.2775 45.2356" stroke="white" stroke-width="2" stroke-linecap="round" stroke-linejoin="round"/>
</svg>
