<svg width="343" height="304" viewBox="0 0 343 304" fill="none" xmlns="http://www.w3.org/2000/svg">
<path opacity="0.010101" d="M184.683 242.181C179.688 237.01 178.592 229.211 181.968 222.863L269.804 57.6659C273.179 51.3182 280.258 47.8657 287.338 49.1141L471.593 81.6032C478.673 82.8516 484.144 88.5169 485.144 95.6361L511.183 280.913C512.184 288.032 508.486 294.986 502.025 298.137L333.863 380.155C327.401 383.307 319.645 381.939 314.651 376.768L184.683 242.181Z" stroke="url(#paint0_linear_10764_11583)" stroke-width="2.69101"/>
<path opacity="0.020202" d="M182.462 239.839C177.559 234.581 176.599 226.764 180.084 220.476L270.602 57.1772C274.088 50.8893 281.225 47.5609 288.283 48.9327L471.56 84.5583C478.617 85.9301 483.989 91.69 484.865 98.8256L507.619 284.142C508.495 291.278 504.677 298.166 498.161 301.204L328.946 380.111C322.43 383.149 314.699 381.646 309.796 376.388L182.462 239.839Z" stroke="url(#paint1_linear_10764_11583)" stroke-width="2.69101"/>
<path opacity="0.030303" d="M180.294 237.498C175.483 232.155 174.66 224.323 178.254 218.097L271.414 56.7397C275.009 50.5137 282.204 47.3103 289.236 48.8051L471.483 87.543C478.515 89.0377 483.785 94.8905 484.537 102.04L504.012 287.339C504.764 294.489 500.826 301.309 494.258 304.233L324.047 380.016C317.48 382.94 309.776 381.303 304.966 375.96L180.294 237.498Z" stroke="url(#paint2_linear_10764_11583)" stroke-width="2.69101"/>
<path opacity="0.040404" d="M178.183 235.161C173.467 229.735 172.78 221.89 176.483 215.727L272.244 56.3539C275.947 50.1916 283.197 47.1143 290.201 48.7315L471.366 90.5568C478.371 92.174 483.538 98.1179 484.165 105.28L500.37 290.502C500.996 297.664 496.94 304.415 490.322 307.224L319.173 379.873C312.555 382.682 304.881 380.91 300.164 375.484L178.183 235.161Z" stroke="url(#paint3_linear_10764_11583)" stroke-width="2.69101"/>
<path opacity="0.050505" d="M176.124 232.828C171.503 227.321 170.953 219.464 174.763 213.367L273.085 56.0193C276.895 49.9225 284.197 46.9723 291.173 48.7115L471.202 93.598C478.178 95.3372 483.24 101.37 483.742 108.542L496.685 293.631C497.186 300.803 493.013 307.482 486.347 310.175L314.316 379.68C307.65 382.373 300.009 380.468 295.387 374.961L176.124 232.828Z" stroke="url(#paint4_linear_10764_11583)" stroke-width="2.69101"/>
<path opacity="0.0606061" d="M174.116 230.498C169.592 224.911 169.18 217.046 173.095 211.017L273.937 55.7354C277.852 49.706 285.205 46.8836 292.149 48.7443L470.992 96.6652C477.937 98.5259 482.893 104.646 483.269 111.826L492.959 296.724C493.335 303.904 489.046 310.509 482.334 313.085L309.48 379.438C302.768 382.014 295.161 379.976 290.636 374.389L174.116 230.498Z" stroke="url(#paint5_linear_10764_11583)" stroke-width="2.69101"/>
<path opacity="0.0707071" d="M172.162 228.176C167.736 222.51 167.461 214.639 171.481 208.679L274.799 55.5037C278.82 49.5435 286.22 46.8499 293.131 48.8315L470.737 99.7592C477.648 101.741 482.496 107.947 482.747 115.132L489.195 299.782C489.446 306.967 485.042 313.497 478.287 315.955L304.666 379.148C297.91 381.607 290.34 379.436 285.913 373.771L172.162 228.176Z" stroke="url(#paint6_linear_10764_11583)" stroke-width="2.69101"/>
<path opacity="0.0808081" d="M170.257 225.861C165.931 220.119 165.793 212.245 169.917 206.356L275.67 55.3252C279.793 49.4362 287.24 46.8721 294.115 48.974L470.433 102.88C477.308 104.982 482.048 111.272 482.173 118.46L485.391 302.806C485.516 309.994 480.999 316.445 474.202 318.786L299.872 378.812C293.075 381.153 285.543 378.85 281.217 373.109L170.257 225.861Z" stroke="url(#paint7_linear_10764_11583)" stroke-width="2.69101"/>
<path opacity="0.0909091" d="M168.408 223.553C164.182 217.736 164.182 209.861 168.408 204.044L276.552 55.1972C280.778 49.381 288.268 46.9473 295.105 49.1689L470.086 106.023C476.923 108.245 481.552 114.617 481.552 121.806V305.791C481.552 312.98 476.923 319.352 470.086 321.574L295.105 378.428C288.268 380.65 280.778 378.216 276.552 372.4L168.408 223.553Z" stroke="url(#paint8_linear_10764_11583)" stroke-width="2.69101"/>
<path opacity="0.10101" d="M166.609 221.252C162.485 215.363 162.623 207.488 166.949 201.747L277.44 55.1202C281.767 49.3786 289.299 47.076 296.096 49.4166L469.69 109.19C476.487 111.53 481.005 117.982 480.879 125.17L477.675 308.738C477.55 315.926 472.81 322.216 465.935 324.318L290.361 377.996C283.486 380.098 276.039 377.534 271.915 371.645L166.609 221.252Z" stroke="url(#paint9_linear_10764_11583)" stroke-width="2.69101"/>
<path opacity="0.111111" d="M164.861 218.962C160.841 213.002 161.116 205.131 165.542 199.466L278.336 55.0966C282.762 49.4314 290.332 47.2606 297.088 49.7194L469.247 112.38C476.002 114.839 480.406 121.368 480.155 128.553L473.761 311.649C473.511 318.833 468.662 325.04 461.751 327.021L285.641 377.52C278.73 379.502 271.329 376.808 267.309 370.848L164.861 218.962Z" stroke="url(#paint10_linear_10764_11583)" stroke-width="2.69101"/>
<path opacity="0.121212" d="M163.168 216.682C159.252 210.653 159.664 202.788 164.189 197.201L279.24 55.1242C283.764 49.5372 291.372 47.4988 298.083 50.0752L468.759 115.591C475.471 118.168 479.76 124.773 479.384 131.952L469.816 314.52C469.439 321.699 464.483 327.82 457.539 329.681L280.95 376.998C274.006 378.858 266.653 376.036 262.738 370.006L163.168 216.682Z" stroke="url(#paint11_linear_10764_11583)" stroke-width="2.69101"/>
<path opacity="0.131313" d="M161.522 214.414C157.712 208.317 158.261 200.461 162.882 194.953L280.146 55.2042C284.767 49.697 292.409 47.7917 299.074 50.4849L468.22 118.824C474.886 121.517 479.059 128.196 478.558 135.368L465.832 317.353C465.331 324.525 460.268 330.558 453.292 332.297L276.282 376.431C269.306 378.17 262.004 375.22 258.194 369.123L161.522 214.414Z" stroke="url(#paint12_linear_10764_11583)" stroke-width="2.69101"/>
<path opacity="0.141414" d="M159.924 212.157C156.222 205.995 156.908 198.149 161.625 192.724L281.054 55.336C285.77 49.9102 293.444 48.1386 300.062 50.9476L467.631 122.076C474.249 124.886 478.305 131.636 477.678 138.798L461.813 320.146C461.186 327.308 456.019 333.252 449.014 334.869L271.639 375.819C264.634 377.436 257.385 374.359 253.682 368.196L159.924 212.157Z" stroke="url(#paint13_linear_10764_11583)" stroke-width="2.69101"/>
<path opacity="0.151515" d="M158.381 209.914C154.786 203.688 155.609 195.856 160.42 190.513L281.968 55.5199C286.779 50.1773 294.483 48.5399 301.05 51.464L466.997 125.348C473.565 128.272 477.502 135.093 476.751 142.243L457.763 322.899C457.012 330.049 451.742 335.902 444.71 337.396L267.028 375.164C259.996 376.659 252.801 373.455 249.206 367.229L158.381 209.914Z" stroke="url(#paint14_linear_10764_11583)" stroke-width="2.69101"/>
<path opacity="0.161616" d="M156.888 207.684C153.403 201.397 154.362 193.58 159.265 188.322L282.886 55.7548C287.789 50.497 295.52 48.9942 302.036 52.0325L466.315 128.637C472.831 131.676 476.649 138.564 475.773 145.699L453.683 325.611C452.806 332.746 447.435 338.506 440.378 339.878L262.446 374.465C255.389 375.836 248.251 372.508 244.766 366.22L156.888 207.684Z" stroke="url(#paint15_linear_10764_11583)" stroke-width="2.69101"/>
<path opacity="0.171717" d="M155.443 205.47C152.068 199.123 153.164 191.324 158.158 186.152L283.804 56.0426C288.798 50.8711 296.554 49.5035 303.015 52.6551L465.583 131.945C472.045 135.096 475.742 142.05 474.742 149.169L449.569 328.283C448.568 335.402 443.098 341.067 436.018 342.315L257.892 373.724C250.812 374.972 243.733 371.52 240.358 365.172L155.443 205.47Z" stroke="url(#paint16_linear_10764_11583)" stroke-width="2.69101"/>
<path opacity="0.181818" d="M154.048 203.271C150.784 196.866 152.016 189.087 157.1 184.003L284.721 56.3815C289.805 51.2979 297.584 50.0659 303.989 53.3297L464.802 135.268C471.208 138.532 474.783 145.549 473.658 152.65L445.425 330.912C444.3 338.013 438.731 343.582 431.63 344.706L253.368 372.94C246.267 374.065 239.25 370.49 235.986 364.084L154.048 203.271Z" stroke="url(#paint17_linear_10764_11583)" stroke-width="2.69101"/>
<path opacity="0.191919" d="M152.703 201.089C149.551 194.627 150.919 186.871 156.09 181.877L285.64 56.7724C290.811 51.7784 298.611 50.6823 304.958 54.0574L463.973 138.607C470.321 141.982 473.773 149.061 472.525 156.141L441.252 333.5C440.003 340.58 434.338 346.051 427.219 347.052L248.876 372.116C241.757 373.117 234.803 369.419 231.651 362.958L152.703 201.089Z" stroke="url(#paint18_linear_10764_11583)" stroke-width="2.69101"/>
<path opacity="0.20202" d="M151.405 198.923C148.367 192.407 149.869 184.676 155.127 179.773L286.556 57.2136C291.814 52.3105 299.631 51.3507 305.919 54.8361L463.094 141.96C469.382 145.445 472.71 152.583 471.338 159.64L437.049 336.045C435.677 343.102 429.917 348.473 422.781 349.349L244.414 371.25C237.279 372.126 230.391 368.308 227.352 361.792L151.405 198.923Z" stroke="url(#paint19_linear_10764_11583)" stroke-width="2.69101"/>
<path opacity="0.212121" d="M150.154 196.776C147.23 190.208 148.867 182.505 154.21 177.694L287.469 57.7073C292.812 52.8967 300.644 52.0735 306.87 55.6681L462.164 145.327C468.39 148.921 471.593 156.116 470.098 163.148L432.816 338.547C431.321 345.579 425.469 350.849 418.319 351.601L239.984 370.345C232.834 371.096 226.013 367.158 223.089 360.59L150.154 196.776Z" stroke="url(#paint20_linear_10764_11583)" stroke-width="2.69101"/>
<path opacity="0.222222" d="M148.953 194.647C146.144 188.029 147.916 180.355 153.341 175.639L288.38 58.2512C293.806 53.5346 301.652 52.8482 307.814 56.5509L461.186 148.706C467.348 152.409 470.426 159.658 468.808 166.663L428.558 341.006C426.941 348.011 420.997 353.178 413.835 353.804L235.588 369.399C228.426 370.025 221.675 365.969 218.866 359.351L148.953 194.647Z" stroke="url(#paint21_linear_10764_11583)" stroke-width="2.69101"/>
<path opacity="0.232323" d="M147.797 192.538C145.104 185.872 147.009 178.231 152.517 173.61L289.286 58.8466C294.793 54.2254 302.65 53.6761 308.746 57.4858L460.156 152.097C466.253 155.907 469.204 163.209 467.464 170.185L424.272 343.421C422.533 350.397 416.499 355.459 409.328 355.96L231.223 368.415C224.051 368.916 217.372 364.743 214.679 358.077L147.797 192.538Z" stroke="url(#paint22_linear_10764_11583)" stroke-width="2.69101"/>
<path opacity="0.242424" d="M146.688 190.45C144.111 183.738 146.15 176.131 151.737 171.607L290.186 59.493C295.773 54.9687 303.638 54.5565 309.667 58.472L459.077 155.5C465.106 159.415 467.928 166.768 466.068 173.712L419.959 345.792C418.098 352.736 411.978 357.693 404.798 358.069L226.892 367.393C219.713 367.769 213.108 363.48 210.531 356.768L146.688 190.45Z" stroke="url(#paint23_linear_10764_11583)" stroke-width="2.69101"/>
<path opacity="0.252525" d="M145.626 188.383C143.167 181.627 145.338 174.056 151.003 169.63L291.081 60.1894C296.746 55.7633 304.617 55.4885 310.577 59.5086L457.948 158.912C463.908 162.932 466.602 170.332 464.62 177.243L415.623 348.119C413.641 355.029 407.435 359.878 400.25 360.129L222.597 366.333C215.412 366.584 208.883 362.18 206.424 355.424L145.626 188.383Z" stroke="url(#paint24_linear_10764_11583)" stroke-width="2.69101"/>
<path opacity="0.262626" d="M144.609 186.338C142.268 179.54 144.571 172.009 150.312 167.682L291.968 60.9368C297.71 56.6102 305.585 56.4727 311.474 60.5963L456.769 162.333C462.658 166.457 465.222 173.903 463.12 180.778L411.261 350.4C409.159 357.275 402.869 362.015 395.681 362.141L218.336 365.236C211.148 365.362 204.696 360.844 202.356 354.047L144.609 186.338Z" stroke="url(#paint25_linear_10764_11583)" stroke-width="2.69101"/>
<path opacity="0.272727" d="M143.638 184.315C141.416 177.478 143.85 169.988 149.666 165.762L292.849 61.7338C298.665 57.5081 306.541 57.5081 312.357 61.7338L455.54 165.762C461.356 169.988 463.79 177.478 461.568 184.315L406.877 352.637C404.656 359.474 398.284 364.103 391.095 364.103L214.111 364.103C206.922 364.103 200.55 359.474 198.329 352.637L143.638 184.315Z" stroke="url(#paint26_linear_10764_11583)" stroke-width="2.69101"/>
<path opacity="0.282828" d="M142.712 182.317C140.61 175.442 143.174 167.996 149.064 163.872L293.721 62.5816C299.61 58.458 307.485 58.5955 313.226 62.922L454.261 169.199C460.003 173.526 462.305 181.057 459.965 187.855L402.471 354.828C400.131 361.626 393.679 366.143 386.491 366.018L209.923 362.936C202.735 362.81 196.445 358.07 194.344 351.195L142.712 182.317Z" stroke="url(#paint27_linear_10764_11583)" stroke-width="2.69101"/>
<path opacity="0.292929" d="M141.831 180.343C139.85 173.433 142.543 166.032 148.504 162.012L294.585 63.4787C300.545 59.4586 308.416 59.7334 314.081 64.1596L452.933 172.643C458.598 177.069 460.769 184.639 458.31 191.395L398.044 356.974C395.585 363.73 389.056 368.134 381.871 367.883L205.773 361.733C198.588 361.482 192.382 356.634 190.4 349.723L141.831 180.343Z" stroke="url(#paint28_linear_10764_11583)" stroke-width="2.69101"/>
<path opacity="0.30303" d="M140.994 178.393C139.134 171.449 141.956 164.096 147.985 160.181L295.438 64.4243C301.467 60.5088 309.332 60.9209 314.919 65.4453L451.554 176.09C457.141 180.614 459.179 188.222 456.603 194.934L393.596 359.072C391.02 365.784 384.415 370.074 377.235 369.697L201.66 360.496C194.48 360.12 188.36 355.163 186.499 348.219L140.994 178.393Z" stroke="url(#paint29_linear_10764_11583)" stroke-width="2.69101"/>
<path opacity="0.313131" d="M140.199 176.471C138.459 169.495 141.41 162.193 147.507 158.383L296.278 65.421C302.374 61.6113 310.231 62.1606 315.738 66.7818L450.123 179.544C455.631 184.166 457.536 191.807 454.843 198.473L389.127 361.127C386.433 367.792 379.754 371.966 372.583 371.464L197.582 359.227C190.411 358.726 184.378 353.663 182.638 346.688L140.199 176.471Z" stroke="url(#paint30_linear_10764_11583)" stroke-width="2.69101"/>
<path opacity="0.323232" d="M139.449 174.574C137.832 167.569 140.91 160.319 147.072 156.617L297.109 66.4651C303.272 62.7624 311.117 63.4488 316.543 68.1654L448.646 183.001C454.072 187.718 455.844 195.391 453.035 202.009L384.642 363.133C381.833 369.751 375.082 373.807 367.92 373.18L193.548 357.925C186.386 357.298 180.442 352.131 178.825 345.126L139.449 174.574Z" stroke="url(#paint31_linear_10764_11583)" stroke-width="2.69101"/>
<path opacity="0.333333" d="M138.738 172.704C137.244 165.672 140.447 158.477 146.673 154.882L297.924 67.5576C304.15 63.963 311.983 64.7862 317.325 69.5967L447.115 186.46C452.458 191.271 454.095 198.974 451.171 205.542L380.135 365.092C377.211 371.66 370.39 375.598 363.24 374.846L189.547 356.59C182.398 355.839 176.545 350.569 175.05 343.537L138.738 172.704Z" stroke="url(#paint32_linear_10764_11583)" stroke-width="2.69101"/>
<path opacity="0.343434" d="M138.07 170.862C136.699 163.805 140.027 156.667 146.315 153.182L298.727 68.6986C305.014 65.2132 312.831 66.173 318.089 71.076L445.535 189.921C450.793 194.824 452.296 202.555 449.258 209.071L375.612 367.005C372.574 373.52 365.685 377.339 358.55 376.463L185.588 355.226C178.453 354.349 172.693 348.978 171.321 341.921L138.07 170.862Z" stroke="url(#paint33_linear_10764_11583)" stroke-width="2.69101"/>
<path opacity="0.353535" d="M137.441 169.049C136.193 161.969 139.645 154.891 145.993 151.516L299.512 69.8879C305.86 66.5127 313.659 67.6088 318.831 72.6029L443.903 193.384C449.075 198.378 450.443 206.134 447.291 212.596L371.071 368.871C367.919 375.332 360.965 379.03 353.846 378.029L181.667 353.831C174.547 352.83 168.882 347.359 167.634 340.279L137.441 169.049Z" stroke="url(#paint34_linear_10764_11583)" stroke-width="2.69101"/>
<path opacity="0.363636" d="M136.858 167.266C135.733 160.165 139.309 153.148 145.714 149.884L300.288 71.1248C306.694 67.8609 314.473 69.093 319.556 74.1765L442.227 196.847C447.311 201.931 448.543 209.71 445.279 216.115L366.519 370.689C363.256 377.095 356.238 380.67 349.138 379.546L177.791 352.407C170.69 351.282 165.121 345.713 163.996 338.613L136.858 167.266Z" stroke="url(#paint35_linear_10764_11583)" stroke-width="2.69101"/>
<path opacity="0.373737" d="M136.312 165.512C135.311 158.393 139.009 151.439 145.47 148.287L301.046 72.408C307.508 69.2564 315.264 70.6241 320.258 75.7955L440.499 200.309C445.493 205.48 446.589 213.279 443.214 219.627L361.951 372.46C358.576 378.807 351.497 382.26 344.417 381.011L173.953 350.954C166.873 349.706 161.402 344.04 160.402 336.921L136.312 165.512Z" stroke="url(#paint36_linear_10764_11583)" stroke-width="2.69101"/>
<path opacity="0.383838" d="M135.803 163.789C134.927 156.653 138.745 149.765 145.261 146.727L301.784 73.7388C308.3 70.7005 316.031 72.2033 320.934 77.4611L438.718 203.769C443.621 209.027 444.581 216.844 441.096 223.132L357.367 374.183C353.881 380.471 346.744 383.799 339.686 382.427L170.155 349.474C163.098 348.102 157.727 342.342 156.85 335.206L135.803 163.789Z" stroke="url(#paint37_linear_10764_11583)" stroke-width="2.69101"/>
<path opacity="0.393939" d="M135.334 162.096C134.583 154.947 138.521 148.126 145.088 145.202L302.506 75.1148C309.074 72.1907 316.778 73.8282 321.588 79.1708L436.89 207.226C441.701 212.569 442.524 220.401 438.929 226.628L352.771 375.857C349.177 382.083 341.982 385.287 334.95 383.792L166.4 347.965C159.367 346.471 154.098 340.618 153.346 333.468L135.334 162.096Z" stroke="url(#paint38_linear_10764_11583)" stroke-width="2.69101"/>
<path opacity="0.40404" d="M134.901 160.436C134.275 153.274 138.331 146.523 144.949 143.714L303.208 76.5369C309.826 73.7279 317.5 75.4995 322.216 80.9253L435.01 210.68C439.727 216.106 440.413 223.952 436.71 230.114L348.162 377.484C344.459 383.646 337.209 386.723 330.204 385.106L162.684 346.431C155.679 344.814 150.512 338.87 149.886 331.708L134.901 160.436Z" stroke="url(#paint39_linear_10764_11583)" stroke-width="2.69101"/>
<path opacity="0.414141" d="M134.509 158.808C134.008 151.636 138.181 144.957 144.847 142.264L303.894 78.0052C310.56 75.3121 318.201 77.2174 322.823 82.7246L433.085 214.13C437.706 219.637 438.255 227.494 434.446 233.591L343.545 379.063C339.735 385.16 332.433 388.11 325.457 386.371L159.015 344.872C152.039 343.133 146.977 337.1 146.475 329.928L134.509 158.808Z" stroke="url(#paint40_linear_10764_11583)" stroke-width="2.69101"/>
<path opacity="0.424242" d="M134.15 157.213C133.774 150.034 138.063 143.428 144.775 140.852L304.556 79.5179C311.268 76.9415 318.875 78.9799 323.399 84.567L431.107 217.574C435.631 223.162 436.043 231.026 432.128 237.056L338.913 380.593C334.998 386.623 327.645 389.445 320.701 387.584L155.384 343.288C148.44 341.427 143.483 335.306 143.107 328.127L134.15 157.213Z" stroke="url(#paint41_linear_10764_11583)" stroke-width="2.69101"/>
<path opacity="0.434343" d="M133.831 155.651C133.58 148.467 137.984 141.937 144.739 139.478L305.201 81.0752C311.957 78.6163 319.527 80.7872 323.954 86.4523L429.084 221.013C433.51 226.678 433.785 234.549 429.764 240.509L334.277 382.075C330.257 388.035 322.856 390.729 315.945 388.747L151.8 341.68C144.89 339.698 140.041 333.492 139.79 326.307L133.831 155.651Z" stroke="url(#paint42_linear_10764_11583)" stroke-width="2.69101"/>
<path opacity="0.444444" d="M133.545 154.124C133.42 146.936 137.937 140.485 144.734 138.144L305.823 82.6767C312.621 80.3361 320.152 82.6388 324.479 88.3803L427.01 224.444C431.337 230.186 431.474 238.061 427.351 243.95L329.63 383.509C325.507 389.398 318.06 391.962 311.185 389.86L148.259 340.049C141.384 337.947 136.644 331.657 136.518 324.469L133.545 154.124Z" stroke="url(#paint43_linear_10764_11583)" stroke-width="2.69101"/>
<path opacity="0.454545" d="M133.292 152.632C133.292 145.443 137.922 139.072 144.759 136.85L306.421 84.3227C313.259 82.1011 320.749 84.5349 324.975 90.3511L424.887 227.869C429.113 233.685 429.113 241.561 424.887 247.377L324.975 384.895C320.749 390.712 313.259 393.145 306.421 390.924L144.759 338.396C137.922 336.175 133.292 329.803 133.292 322.614L133.292 152.632Z" stroke="url(#paint44_linear_10764_11583)" stroke-width="2.69101"/>
<path opacity="0.464646" d="M133.076 151.174C133.202 143.986 137.942 137.696 144.817 135.594L306.999 86.0104C313.874 83.9084 321.321 86.4725 325.444 92.3616L422.719 231.284C426.842 237.173 426.705 245.047 422.378 250.789L320.315 386.232C315.988 391.973 308.457 394.276 301.659 391.935L141.306 336.721C134.509 334.381 129.991 327.929 130.117 320.741L133.076 151.174Z" stroke="url(#paint45_linear_10764_11583)" stroke-width="2.69101"/>
<path opacity="0.474747" d="M132.893 149.753C133.144 142.568 137.992 136.362 144.903 134.38L307.552 87.7412C314.463 85.7596 321.864 88.4533 325.884 94.4134L420.501 234.69C424.522 240.65 424.247 248.521 419.82 254.186L315.648 387.52C311.222 393.185 303.652 395.356 296.896 392.897L137.896 335.026C131.141 332.567 126.737 326.038 126.988 318.853L132.893 149.753Z" stroke="url(#paint46_linear_10764_11583)" stroke-width="2.69101"/>
<path opacity="0.484848" d="M132.739 148.368C133.115 141.188 138.071 135.068 145.016 133.207L308.078 89.5146C315.022 87.6539 322.375 90.4763 326.29 96.5057L418.234 238.086C422.149 244.115 421.737 251.98 417.213 257.567L310.974 388.761C306.45 394.348 298.842 396.386 292.131 393.81L134.529 333.312C127.817 330.736 123.527 324.13 123.904 316.951L132.739 148.368Z" stroke="url(#paint47_linear_10764_11583)" stroke-width="2.69101"/>
<path opacity="0.494949" d="M132.62 147.018C133.121 139.847 138.184 133.814 145.16 132.074L308.582 91.3285C315.558 89.5893 322.86 92.5396 326.67 98.6364L415.922 241.47C419.732 247.566 419.182 255.423 414.561 260.93L306.299 389.952C301.678 395.459 294.036 397.364 287.371 394.671L131.209 331.578C124.543 328.885 120.37 322.206 120.871 315.034L132.62 147.018Z" stroke="url(#paint48_linear_10764_11583)" stroke-width="2.69101"/>
<path opacity="0.50505" d="M132.53 145.708C133.157 138.546 138.324 132.602 145.329 130.985L309.059 93.1847C316.063 91.5674 323.313 94.6447 327.016 100.807L413.561 244.843C417.264 251.005 416.577 258.851 411.861 264.277L301.619 391.096C296.902 396.521 289.229 398.293 282.611 395.484L127.932 329.827C121.314 327.018 117.258 320.267 117.885 313.105L132.53 145.708Z" stroke="url(#paint49_linear_10764_11583)" stroke-width="2.69101"/>
<path opacity="0.515152" d="M132.471 144.434C133.222 137.285 138.492 131.432 145.524 129.937L309.508 95.0812C316.541 93.5865 323.735 96.7898 327.33 103.016L411.154 248.203C414.749 254.429 413.925 262.262 409.115 267.604L296.936 392.191C292.126 397.534 284.422 399.171 277.855 396.247L124.701 328.058C118.133 325.134 114.195 318.314 114.947 311.164L132.471 144.434Z" stroke="url(#paint50_linear_10764_11583)" stroke-width="2.69101"/>
<path opacity="0.525253" d="M132.443 143.199C133.32 136.063 138.691 130.303 145.748 128.931L309.934 97.0168C316.991 95.645 324.129 98.9735 327.614 105.261L408.703 251.549C412.188 257.837 411.228 265.654 406.325 270.912L292.255 393.237C287.352 398.495 279.621 399.998 273.105 396.959L121.517 326.273C115.002 323.235 111.184 316.346 112.06 309.211L132.443 143.199Z" stroke="url(#paint51_linear_10764_11583)" stroke-width="2.69101"/>
<path opacity="0.535354" d="M132.442 142.002C133.443 134.883 138.913 129.218 145.993 127.969L310.328 98.9926C317.408 97.7442 324.487 101.197 327.862 107.544L406.203 254.882C409.578 261.229 408.482 269.028 403.487 274.2L287.57 394.236C282.576 399.407 274.82 400.775 268.358 397.624L118.377 324.473C111.915 321.321 108.218 314.367 109.218 307.248L132.442 142.002Z" stroke="url(#paint52_linear_10764_11583)" stroke-width="2.69101"/>
<path opacity="0.545455" d="M132.472 140.845C133.596 133.744 139.165 128.175 146.266 127.05L310.697 101.007C317.798 99.8825 324.815 103.458 328.079 109.864L403.66 258.199C406.924 264.605 405.692 272.383 400.608 277.467L282.888 395.187C277.805 400.27 270.026 401.502 263.62 398.238L115.285 322.658C108.879 319.394 105.304 312.377 106.428 305.276L132.472 140.845Z" stroke="url(#paint53_linear_10764_11583)" stroke-width="2.69101"/>
<path opacity="0.555556" d="M132.525 139.726C133.773 132.646 139.439 127.175 146.558 126.174L311.033 103.059C318.152 102.058 325.106 105.756 328.258 112.217L401.068 261.5C404.219 267.961 402.852 275.717 397.68 280.711L278.204 396.088C273.032 401.082 265.233 402.178 258.885 398.803L112.235 320.828C105.887 317.453 102.435 310.374 103.683 303.294L132.525 139.726Z" stroke="url(#paint54_linear_10764_11583)" stroke-width="2.69101"/>
<path opacity="0.565657" d="M132.609 138.648C133.98 131.591 139.74 126.22 146.876 125.343L311.344 105.149C318.479 104.273 325.367 108.091 328.406 114.607L398.435 264.785C401.473 271.3 399.97 279.031 394.712 283.934L273.525 396.944C268.267 401.847 260.45 402.806 254.162 399.321L109.235 318.987C102.948 315.501 99.6192 308.363 100.991 301.306L132.609 138.648Z" stroke="url(#paint55_linear_10764_11583)" stroke-width="2.69101"/>
<path opacity="0.575758" d="M132.717 137.609C134.211 130.577 140.064 125.307 147.214 124.556L311.622 107.276C318.772 106.524 325.593 110.462 328.517 117.03L395.756 268.051C398.68 274.619 397.043 282.323 391.7 287.133L268.848 397.75C263.505 402.56 255.673 403.384 249.447 399.789L106.281 317.132C100.055 313.537 96.8513 306.343 98.346 299.311L132.717 137.609Z" stroke="url(#paint56_linear_10764_11583)" stroke-width="2.69101"/>
<path opacity="0.585859" d="M132.845 136.612C134.462 129.607 140.406 124.44 147.568 123.814L311.865 109.439C319.027 108.813 325.778 112.869 328.587 119.487L393.028 271.301C395.838 277.919 394.066 285.593 388.64 290.309L264.17 398.51C258.744 403.226 250.898 403.913 244.736 400.21L103.368 315.267C97.2053 311.565 94.128 304.315 95.7452 297.31L132.845 136.612Z" stroke="url(#paint57_linear_10764_11583)" stroke-width="2.69101"/>
<path opacity="0.59596" d="M133.003 135.655C134.743 128.68 140.776 123.617 147.948 123.116L312.083 111.638C319.254 111.137 325.933 115.31 328.626 121.976L390.263 274.531C392.956 281.197 391.05 288.838 385.543 293.46L259.501 399.221C253.994 403.842 246.138 404.392 240.041 400.582L100.507 313.391C94.4097 309.582 91.4594 302.279 93.1987 295.304L133.003 135.655Z" stroke="url(#paint58_linear_10764_11583)" stroke-width="2.69101"/>
<path opacity="0.606061" d="M133.187 134.74C135.048 127.796 141.169 122.839 148.348 122.463L312.27 113.872C319.449 113.496 326.054 117.785 328.631 124.497L387.456 277.741C390.032 284.453 387.994 292.06 382.407 296.585L254.841 399.886C249.254 404.41 241.389 404.822 235.359 400.907L97.6941 311.506C91.6647 307.59 88.8423 300.238 90.703 293.294L133.187 134.74Z" stroke="url(#paint59_linear_10764_11583)" stroke-width="2.69101"/>
<path opacity="0.616162" d="M133.389 133.866C135.37 126.955 141.577 122.107 148.761 121.856L312.42 116.141C319.604 115.89 326.134 120.294 328.592 127.049L384.601 280.931C387.06 287.687 384.889 295.258 379.224 299.684L250.181 400.503C244.516 404.929 236.645 405.204 230.685 401.184L94.9232 309.612C88.9631 305.592 86.2694 298.191 88.251 291.28L133.389 133.866Z" stroke="url(#paint60_linear_10764_11583)" stroke-width="2.69101"/>
<path opacity="0.626263" d="M133.613 133.035C135.715 126.16 142.005 121.42 149.193 121.295L312.537 118.443C319.725 118.318 326.177 122.835 328.517 129.633L381.705 284.101C384.046 290.899 381.743 298.43 376.002 302.757L245.529 401.075C239.788 405.401 231.913 405.539 226.024 401.415L92.2002 307.711C86.3112 303.587 83.7471 296.14 85.849 289.265L133.613 133.035Z" stroke="url(#paint61_linear_10764_11583)" stroke-width="2.69101"/>
<path opacity="0.636364" d="M133.859 132.246C136.081 125.409 142.452 120.779 149.642 120.779L312.621 120.779C319.811 120.779 326.182 125.409 328.404 132.246L378.767 287.249C380.989 294.086 378.555 301.577 372.739 305.802L240.886 401.6C235.069 405.825 227.194 405.825 221.377 401.6L89.5239 305.802C83.7077 301.577 81.274 294.086 83.4955 287.249L133.859 132.246Z" stroke="url(#paint62_linear_10764_11583)" stroke-width="2.69101"/>
<path opacity="0.646465" d="M134.126 131.499C136.466 124.701 142.918 120.184 150.106 120.309L312.672 123.147C319.86 123.273 326.15 128.012 328.252 134.887L375.789 290.374C377.891 297.249 375.327 304.696 369.437 308.819L236.251 402.077C230.362 406.201 222.487 406.064 216.746 401.737L86.8948 303.887C81.1532 299.561 78.8506 292.029 81.1912 285.232L134.126 131.499Z" stroke="url(#paint63_linear_10764_11583)" stroke-width="2.69101"/>
<path opacity="0.656566" d="M134.413 130.794C136.872 124.039 143.401 119.635 150.586 119.886L312.689 125.546C319.874 125.797 326.08 130.646 328.061 137.557L372.77 293.475C374.752 300.386 372.058 307.787 366.098 311.807L231.627 402.509C225.667 406.529 217.796 406.254 212.13 401.828L84.3136 301.967C78.6484 297.541 76.4775 289.97 78.9364 283.214L134.413 130.794Z" stroke="url(#paint64_linear_10764_11583)" stroke-width="2.69101"/>
<path opacity="0.666667" d="M134.713 130.133C137.289 123.421 143.894 119.132 151.073 119.508L312.665 127.977C319.844 128.353 325.964 133.309 327.825 140.254L369.705 296.553C371.566 303.497 368.744 310.85 362.714 314.765L227.007 402.895C220.977 406.81 213.112 406.398 207.525 401.874L81.773 300.042C76.1859 295.517 74.1476 287.91 76.7239 281.198L134.713 130.133Z" stroke="url(#paint65_linear_10764_11583)" stroke-width="2.69101"/>
<path opacity="0.676768" d="M135.037 129.516C137.73 122.85 144.409 118.677 151.58 119.178L312.611 130.439C319.783 130.94 325.816 136.002 327.555 142.978L366.607 299.607C368.346 306.583 365.396 313.885 359.299 317.695L222.404 403.236C216.307 407.046 208.451 406.497 202.943 401.876L79.2855 298.114C73.7782 293.493 71.8729 285.851 74.5661 279.186L135.037 129.516Z" stroke="url(#paint66_linear_10764_11583)" stroke-width="2.69101"/>
<path opacity="0.686869" d="M135.377 128.941C138.186 122.323 144.937 118.267 152.099 118.893L312.521 132.928C319.683 133.555 325.626 138.722 327.244 145.727L363.469 302.634C365.086 309.639 362.009 316.889 355.846 320.592L217.812 403.531C211.65 407.234 203.804 406.547 198.378 401.831L76.8438 296.182C71.4181 291.466 69.6464 283.792 72.4555 277.174L135.377 128.941Z" stroke="url(#paint67_linear_10764_11583)" stroke-width="2.69101"/>
<path opacity="0.69697" d="M135.733 128.41C138.657 121.842 145.478 117.904 152.628 118.656L312.394 135.448C319.544 136.199 325.396 141.469 326.891 148.501L360.291 305.637C361.786 312.669 358.583 319.864 352.357 323.458L213.233 403.781C207.007 407.376 199.175 406.553 193.832 401.742L74.4487 294.249C69.1061 289.439 67.4686 281.735 70.3927 275.167L135.733 128.41Z" stroke="url(#paint68_linear_10764_11583)" stroke-width="2.69101"/>
<path opacity="0.707071" d="M136.102 127.924C139.14 121.408 146.029 117.59 153.164 118.466L312.227 137.996C319.362 138.873 325.122 144.244 326.494 151.301L357.072 308.613C358.444 315.671 355.116 322.808 348.828 326.294L208.664 403.988C202.376 407.473 194.559 406.514 189.301 401.611L72.0967 292.315C66.8389 287.412 65.3361 279.681 68.3744 273.166L136.102 127.924Z" stroke="url(#paint69_linear_10764_11583)" stroke-width="2.69101"/>
<path opacity="0.717172" d="M136.487 127.48C139.638 121.019 146.592 117.321 153.711 118.322L312.023 140.571C319.143 141.572 324.808 147.042 326.056 154.122L353.817 311.562C355.066 318.642 351.613 325.72 345.265 329.095L204.11 404.149C197.763 407.524 189.964 406.428 184.792 401.434L69.7926 290.38C64.6211 285.386 63.2535 277.63 66.4051 271.169L136.487 127.48Z" stroke="url(#paint70_linear_10764_11583)" stroke-width="2.69101"/>
<path opacity="0.727273" d="M136.889 127.083C140.153 120.677 147.17 117.101 154.271 118.226L311.786 143.174C318.887 144.299 324.456 149.868 325.581 156.968L350.529 314.484C351.653 321.585 348.078 328.602 341.672 331.866L199.575 404.268C193.17 407.532 185.391 406.3 180.308 401.216L67.5388 288.447C62.4553 283.364 61.2233 275.585 64.4871 269.179L136.889 127.083Z" stroke="url(#paint71_linear_10764_11583)" stroke-width="2.69101"/>
<path opacity="0.737374" d="M137.302 126.728C140.677 120.38 147.755 116.928 154.835 118.176L311.508 145.802C318.588 147.05 324.059 152.715 325.06 159.835L347.201 317.376C348.202 324.496 344.504 331.45 338.042 334.601L195.053 404.342C188.592 407.493 180.836 406.126 175.842 400.954L65.3283 286.514C60.3343 281.343 59.2382 273.544 62.6133 267.196L137.302 126.728Z" stroke="url(#paint72_linear_10764_11583)" stroke-width="2.69101"/>
<path opacity="0.747475" d="M137.724 126.419C141.209 120.131 148.347 116.802 155.404 118.174L311.19 148.456C318.247 149.827 323.618 155.587 324.494 162.723L343.835 320.241C344.711 327.377 340.893 334.265 334.377 337.303L190.545 404.373C184.03 407.412 176.299 405.909 171.395 400.651L63.1616 284.584C58.2586 279.326 57.2988 271.509 60.7842 265.222L137.724 126.419Z" stroke="url(#paint73_linear_10764_11583)" stroke-width="2.69101"/>
<path opacity="0.757576" d="M138.162 126.153C141.757 119.927 148.952 116.724 155.984 118.218L310.836 151.133C317.868 152.628 323.138 158.481 323.89 165.631L340.438 323.075C341.189 330.225 337.251 337.046 330.684 339.97L186.059 404.361C179.491 407.285 171.787 405.648 166.977 400.305L61.0453 282.657C56.2348 277.314 55.4116 269.481 59.0062 263.255L138.162 126.153Z" stroke="url(#paint74_linear_10764_11583)" stroke-width="2.69101"/>
<path opacity="0.767677" d="M138.608 125.933C142.311 119.77 149.561 116.693 156.566 118.31L310.441 153.835C317.446 155.453 322.613 161.397 323.24 168.558L337.004 325.881C337.63 333.042 333.574 339.793 326.956 342.602L181.587 404.308C174.969 407.117 167.296 405.345 162.579 399.919L58.9723 280.733C54.2557 275.307 53.5693 267.462 57.272 261.299L138.608 125.933Z" stroke="url(#paint75_linear_10764_11583)" stroke-width="2.69101"/>
<path opacity="0.777778" d="M139.063 125.758C142.872 119.661 150.175 116.71 157.15 118.45L310.005 156.561C316.98 158.3 322.043 164.333 322.544 171.505L333.533 328.655C334.035 335.827 329.861 342.506 323.196 345.199L177.133 404.212C170.467 406.905 162.825 405 158.204 399.493L56.9431 278.815C52.3219 273.307 51.7726 265.451 55.5823 259.354L139.063 125.758Z" stroke="url(#paint76_linear_10764_11583)" stroke-width="2.69101"/>
<path opacity="0.787879" d="M139.529 125.627C143.444 119.598 150.797 116.775 157.741 118.636L309.532 159.308C316.476 161.169 321.432 167.29 321.808 174.469L330.033 331.399C330.409 338.578 326.12 345.183 319.408 347.76L172.7 404.075C165.989 406.652 158.381 404.613 153.857 399.026L54.9624 276.902C50.438 271.315 50.0258 263.45 53.9414 257.42L139.529 125.627Z" stroke="url(#paint77_linear_10764_11583)" stroke-width="2.69101"/>
<path opacity="0.79798" d="M139.999 125.541C144.019 119.581 151.42 116.887 158.331 118.869L309.014 162.077C315.925 164.058 320.774 170.265 321.025 177.449L326.495 334.11C326.746 341.295 322.342 347.824 315.586 350.283L168.284 403.897C161.528 406.356 153.958 404.185 149.532 398.52L53.0229 274.994C48.5967 269.329 48.3219 261.458 52.3421 255.498L139.999 125.541Z" stroke="url(#paint78_linear_10764_11583)" stroke-width="2.69101"/>
<path opacity="0.808081" d="M140.481 125.5C144.605 119.611 152.051 117.047 158.926 119.149L308.461 164.866C315.336 166.968 320.076 173.258 320.201 180.446L322.93 336.79C323.056 343.978 318.538 350.429 311.741 352.77L163.893 403.678C157.095 406.018 149.564 403.716 145.237 397.974L51.1332 273.094C46.8066 267.352 46.6692 259.478 50.7927 253.589L140.481 125.5Z" stroke="url(#paint79_linear_10764_11583)" stroke-width="2.69101"/>
<path opacity="0.818182" d="M140.968 125.504C145.193 119.688 152.684 117.254 159.521 119.476L307.865 167.676C314.702 169.897 319.332 176.269 319.332 183.458L319.332 339.436C319.332 346.625 314.702 352.997 307.865 355.218L159.521 403.418C152.684 405.64 145.193 403.206 140.968 397.39L49.2861 271.201C45.0604 265.385 45.0604 257.509 49.2861 251.693L140.968 125.504Z" stroke="url(#paint80_linear_10764_11583)" stroke-width="2.69101"/>
<path opacity="0.828283" d="M141.461 125.553C145.787 119.812 153.319 117.509 160.116 119.85L307.229 170.504C314.026 172.845 318.544 179.296 318.418 186.485L315.703 342.05C315.577 349.238 310.837 355.528 303.962 357.63L155.172 403.12C148.297 405.222 140.85 402.658 136.726 396.769L47.4842 269.317C43.3606 263.428 43.4981 255.554 47.8247 249.812L141.461 125.553Z" stroke="url(#paint81_linear_10764_11583)" stroke-width="2.69101"/>
<path opacity="0.838384" d="M141.958 125.647C146.384 119.981 153.955 117.811 160.71 120.269L306.551 173.351C313.306 175.81 317.71 182.339 317.459 189.524L312.043 344.63C311.792 351.814 306.943 358.02 300.033 360.002L150.845 402.781C143.934 404.763 136.533 402.069 132.513 396.109L45.7262 267.442C41.7061 261.482 41.9809 253.611 46.4071 247.946L141.958 125.647Z" stroke="url(#paint82_linear_10764_11583)" stroke-width="2.69101"/>
<path opacity="0.848485" d="M142.458 125.786C146.982 120.199 154.589 118.16 161.301 120.737L305.83 176.216C312.541 178.792 316.831 185.398 316.455 192.577L308.352 347.176C307.976 354.355 303.02 360.476 296.076 362.337L146.54 402.405C139.595 404.265 132.243 401.443 128.327 395.414L44.0109 265.578C40.0954 259.549 40.5076 251.684 45.0319 246.097L142.458 125.786Z" stroke="url(#paint83_linear_10764_11583)" stroke-width="2.69101"/>
<path opacity="0.858586" d="M142.964 125.97C147.585 120.462 155.227 118.557 161.893 121.25L305.071 179.098C311.736 181.791 315.91 188.47 315.408 195.641L304.636 349.687C304.135 356.859 299.072 362.892 292.097 364.631L142.262 401.99C135.286 403.729 127.984 400.779 124.174 394.682L42.3428 263.724C38.5331 257.628 39.0824 249.771 43.7036 244.264L142.964 125.97Z" stroke="url(#paint84_linear_10764_11583)" stroke-width="2.69101"/>
<path opacity="0.868687" d="M143.47 126.198C148.186 120.772 155.86 119 162.478 121.81L304.266 181.995C310.884 184.804 314.94 191.555 314.314 198.717L300.889 352.164C300.262 359.326 295.095 365.27 288.09 366.887L138.005 401.537C131 403.154 123.75 400.077 120.048 393.914L40.7147 261.882C37.012 255.72 37.6984 247.874 42.4149 242.448L143.47 126.198Z" stroke="url(#paint85_linear_10764_11583)" stroke-width="2.69101"/>
<path opacity="0.878788" d="M143.976 126.472C148.787 121.129 156.491 119.491 163.058 122.416L303.419 184.908C309.987 187.832 313.925 194.653 313.173 201.803L297.113 354.605C296.362 361.755 291.092 367.608 284.06 369.103L133.773 401.047C126.741 402.542 119.546 399.339 115.951 393.112L39.1292 260.053C35.5346 253.827 36.3578 245.994 41.1684 240.651L143.976 126.472Z" stroke="url(#paint86_linear_10764_11583)" stroke-width="2.69101"/>
<path opacity="0.888889" d="M144.486 126.79C149.389 121.532 157.12 120.03 163.636 123.068L302.532 187.836C309.048 190.875 312.866 197.763 311.99 204.899L293.313 357.011C292.437 364.147 287.066 369.907 280.008 371.279L129.569 400.521C122.512 401.893 115.374 398.565 111.889 392.277L37.589 258.237C34.1036 251.949 35.0634 244.132 39.9665 238.874L144.486 126.79Z" stroke="url(#paint87_linear_10764_11583)" stroke-width="2.69101"/>
<path opacity="0.89899" d="M144.994 127.153C149.988 121.981 157.744 120.613 164.205 123.765L301.601 190.777C308.062 193.929 311.76 200.882 310.759 208.002L289.484 359.38C288.484 366.499 283.013 372.165 275.933 373.413L125.389 399.958C118.309 401.207 111.23 397.754 107.855 391.406L36.0889 256.434C32.7138 250.086 33.8099 242.287 38.8039 237.115L144.994 127.153Z" stroke="url(#paint88_linear_10764_11583)" stroke-width="2.69101"/>
<path opacity="0.909091" d="M145.501 127.562C150.584 122.478 158.363 121.246 164.769 124.51L300.627 193.733C307.033 196.997 310.608 204.014 309.483 211.115L285.631 361.715C284.506 368.816 278.937 374.385 271.836 375.509L121.236 399.362C114.136 400.487 107.118 396.911 103.855 390.505L34.6314 254.647C31.3676 248.242 32.5996 240.463 37.6831 235.379L145.501 127.562Z" stroke="url(#paint89_linear_10764_11583)" stroke-width="2.69101"/>
<path opacity="0.919192" d="M146.008 128.012C151.179 123.018 158.978 121.922 165.326 125.297L299.612 196.698C305.96 200.073 309.412 207.152 308.164 214.232L281.754 364.01C280.506 371.09 274.84 376.561 267.721 377.561L117.113 398.728C109.994 399.728 103.04 396.031 99.8883 389.569L33.2172 252.873C30.0657 246.412 31.4333 238.656 36.6048 233.662L146.008 128.012Z" stroke="url(#paint90_linear_10764_11583)" stroke-width="2.69101"/>
<path opacity="0.929293" d="M146.511 128.508C151.769 123.605 159.586 122.646 165.874 126.131L298.553 199.676C304.841 203.162 308.169 210.3 306.798 217.357L277.852 366.269C276.48 373.326 270.72 378.697 263.585 379.573L113.016 398.061C105.881 398.937 98.9923 395.119 95.954 388.603L31.8431 251.117C28.8048 244.601 30.3076 236.87 35.5655 231.967L146.511 128.508Z" stroke="url(#paint91_linear_10764_11583)" stroke-width="2.69101"/>
<path opacity="0.939394" d="M147.013 129.049C152.356 124.239 160.188 123.415 166.414 127.01L297.453 202.665C303.679 206.26 306.882 213.455 305.387 220.487L273.928 368.49C272.434 375.523 266.581 380.792 259.431 381.544L108.95 397.36C101.8 398.112 94.9792 394.174 92.0551 387.606L30.5117 249.377C27.5875 242.81 29.225 235.106 34.5676 230.295L147.013 129.049Z" stroke="url(#paint92_linear_10764_11583)" stroke-width="2.69101"/>
<path opacity="0.949495" d="M147.508 129.634C152.934 124.917 160.779 124.231 166.942 127.934L296.306 205.664C302.469 209.366 305.546 216.616 303.929 223.621L269.979 370.674C268.362 377.679 262.418 382.846 255.256 383.473L104.909 396.626C97.7471 397.253 90.9963 393.197 88.1873 386.579L29.2176 247.655C26.4086 241.037 28.1803 233.364 33.606 228.647L147.508 129.634Z" stroke="url(#paint93_linear_10764_11583)" stroke-width="2.69101"/>
<path opacity="0.959596" d="M148.001 130.261C153.509 125.64 161.365 125.09 167.462 128.9L295.121 208.67C301.217 212.48 304.168 219.782 302.428 226.758L266.011 372.818C264.272 379.794 258.239 384.856 251.067 385.358L100.902 395.859C93.7301 396.36 87.0511 392.187 84.358 385.521L27.9676 245.95C25.2745 239.284 27.1798 231.642 32.687 227.021L148.001 130.261Z" stroke="url(#paint94_linear_10764_11583)" stroke-width="2.69101"/>
<path opacity="0.969697" d="M148.487 130.933C154.074 126.408 161.939 125.996 167.968 129.912L293.889 211.686C299.918 215.601 302.741 222.954 300.88 229.898L262.02 374.925C260.159 381.87 254.039 386.826 246.859 387.202L96.9217 395.06C89.7423 395.436 83.1372 391.147 80.5608 384.435L26.7543 244.264C24.1779 237.553 26.2163 229.945 31.8033 225.421L148.487 130.933Z" stroke="url(#paint95_linear_10764_11583)" stroke-width="2.69101"/>
<path opacity="0.979798" d="M148.965 131.647C154.631 127.221 162.502 126.946 168.462 130.966L292.614 214.708C298.574 218.728 301.267 226.129 299.286 233.039L258.008 376.992C256.026 383.903 249.82 388.752 242.635 389.003L92.9723 394.229C85.7874 394.48 79.2582 390.076 76.7993 383.32L25.5803 242.597C23.1215 235.842 25.2923 228.271 30.9575 223.845L148.965 131.647Z" stroke="url(#paint96_linear_10764_11583)" stroke-width="2.69101"/>
<path opacity="0.989899" d="M149.438 132.406C155.18 128.079 163.055 127.942 168.944 132.065L291.296 217.738C297.186 221.861 299.75 229.308 297.648 236.183L253.978 379.022C251.876 385.897 245.586 390.636 238.398 390.762L89.0551 393.369C81.867 393.494 75.4155 388.977 73.075 382.179L24.4464 240.952C22.1058 234.154 24.4084 226.622 30.15 222.296L149.438 132.406Z" stroke="url(#paint97_linear_10764_11583)" stroke-width="2.69101"/>
<path d="M149.906 133.207C155.722 128.981 163.598 128.981 169.414 133.207L289.938 220.773C295.754 224.999 298.188 232.489 295.967 239.326L249.93 381.011C247.709 387.849 241.337 392.478 234.148 392.478H85.1716C77.9824 392.478 71.6109 387.849 69.3893 381.011L23.353 239.326C21.1315 232.489 23.5652 224.999 29.3814 220.773L149.906 133.207Z" stroke="url(#paint98_linear_10764_11583)" stroke-width="2.69101"/>
<defs>
<linearGradient id="paint0_linear_10764_11583" x1="369.322" y1="313.226" x2="339.304" y2="99.6344" gradientUnits="userSpaceOnUse">
<stop stop-color="#5ABE48"/>
<stop offset="1" stop-color="#2045C3"/>
</linearGradient>
<linearGradient id="paint1_linear_10764_11583" x1="365.48" y1="313.943" x2="339.242" y2="100.251" gradientUnits="userSpaceOnUse">
<stop stop-color="#5ABE48"/>
<stop offset="1" stop-color="#2045C3"/>
</linearGradient>
<linearGradient id="paint2_linear_10764_11583" x1="361.641" y1="314.628" x2="339.178" y2="100.903" gradientUnits="userSpaceOnUse">
<stop stop-color="#5ABE48"/>
<stop offset="1" stop-color="#2045C3"/>
</linearGradient>
<linearGradient id="paint3_linear_10764_11583" x1="357.81" y1="315.281" x2="339.114" y2="101.588" gradientUnits="userSpaceOnUse">
<stop stop-color="#5ABE48"/>
<stop offset="1" stop-color="#2045C3"/>
</linearGradient>
<linearGradient id="paint4_linear_10764_11583" x1="353.981" y1="315.901" x2="339.045" y2="102.307" gradientUnits="userSpaceOnUse">
<stop stop-color="#5ABE48"/>
<stop offset="1" stop-color="#2045C3"/>
</linearGradient>
<linearGradient id="paint5_linear_10764_11583" x1="350.155" y1="316.488" x2="338.97" y2="103.058" gradientUnits="userSpaceOnUse">
<stop stop-color="#5ABE48"/>
<stop offset="1" stop-color="#2045C3"/>
</linearGradient>
<linearGradient id="paint6_linear_10764_11583" x1="346.335" y1="317.043" x2="338.89" y2="103.844" gradientUnits="userSpaceOnUse">
<stop stop-color="#5ABE48"/>
<stop offset="1" stop-color="#2045C3"/>
</linearGradient>
<linearGradient id="paint7_linear_10764_11583" x1="342.518" y1="317.567" x2="338.802" y2="104.664" gradientUnits="userSpaceOnUse">
<stop stop-color="#5ABE48"/>
<stop offset="1" stop-color="#2045C3"/>
</linearGradient>
<linearGradient id="paint8_linear_10764_11583" x1="338.711" y1="318.058" x2="338.711" y2="105.516" gradientUnits="userSpaceOnUse">
<stop stop-color="#5ABE48"/>
<stop offset="1" stop-color="#2045C3"/>
</linearGradient>
<linearGradient id="paint9_linear_10764_11583" x1="334.908" y1="318.516" x2="338.61" y2="106.4" gradientUnits="userSpaceOnUse">
<stop stop-color="#5ABE48"/>
<stop offset="1" stop-color="#2045C3"/>
</linearGradient>
<linearGradient id="paint10_linear_10764_11583" x1="331.112" y1="318.944" x2="338.502" y2="107.319" gradientUnits="userSpaceOnUse">
<stop stop-color="#5ABE48"/>
<stop offset="1" stop-color="#2045C3"/>
</linearGradient>
<linearGradient id="paint11_linear_10764_11583" x1="327.328" y1="319.34" x2="338.389" y2="108.269" gradientUnits="userSpaceOnUse">
<stop stop-color="#5ABE48"/>
<stop offset="1" stop-color="#2045C3"/>
</linearGradient>
<linearGradient id="paint12_linear_10764_11583" x1="323.548" y1="319.706" x2="338.264" y2="109.252" gradientUnits="userSpaceOnUse">
<stop stop-color="#5ABE48"/>
<stop offset="1" stop-color="#2045C3"/>
</linearGradient>
<linearGradient id="paint13_linear_10764_11583" x1="319.775" y1="320.04" x2="338.127" y2="110.268" gradientUnits="userSpaceOnUse">
<stop stop-color="#5ABE48"/>
<stop offset="1" stop-color="#2045C3"/>
</linearGradient>
<linearGradient id="paint14_linear_10764_11583" x1="316.014" y1="320.343" x2="337.984" y2="111.315" gradientUnits="userSpaceOnUse">
<stop stop-color="#5ABE48"/>
<stop offset="1" stop-color="#2045C3"/>
</linearGradient>
<linearGradient id="paint15_linear_10764_11583" x1="312.265" y1="320.616" x2="337.831" y2="112.393" gradientUnits="userSpaceOnUse">
<stop stop-color="#5ABE48"/>
<stop offset="1" stop-color="#2045C3"/>
</linearGradient>
<linearGradient id="paint16_linear_10764_11583" x1="308.524" y1="320.859" x2="337.666" y2="113.504" gradientUnits="userSpaceOnUse">
<stop stop-color="#5ABE48"/>
<stop offset="1" stop-color="#2045C3"/>
</linearGradient>
<linearGradient id="paint17_linear_10764_11583" x1="304.794" y1="321.071" x2="337.489" y2="114.645" gradientUnits="userSpaceOnUse">
<stop stop-color="#5ABE48"/>
<stop offset="1" stop-color="#2045C3"/>
</linearGradient>
<linearGradient id="paint18_linear_10764_11583" x1="301.077" y1="321.254" x2="337.301" y2="115.818" gradientUnits="userSpaceOnUse">
<stop stop-color="#5ABE48"/>
<stop offset="1" stop-color="#2045C3"/>
</linearGradient>
<linearGradient id="paint19_linear_10764_11583" x1="297.371" y1="321.406" x2="337.1" y2="117.02" gradientUnits="userSpaceOnUse">
<stop stop-color="#5ABE48"/>
<stop offset="1" stop-color="#2045C3"/>
</linearGradient>
<linearGradient id="paint20_linear_10764_11583" x1="293.676" y1="321.53" x2="336.884" y2="118.253" gradientUnits="userSpaceOnUse">
<stop stop-color="#5ABE48"/>
<stop offset="1" stop-color="#2045C3"/>
</linearGradient>
<linearGradient id="paint21_linear_10764_11583" x1="289.996" y1="321.624" x2="336.657" y2="119.516" gradientUnits="userSpaceOnUse">
<stop stop-color="#5ABE48"/>
<stop offset="1" stop-color="#2045C3"/>
</linearGradient>
<linearGradient id="paint22_linear_10764_11583" x1="286.328" y1="321.69" x2="336.413" y2="120.809" gradientUnits="userSpaceOnUse">
<stop stop-color="#5ABE48"/>
<stop offset="1" stop-color="#2045C3"/>
</linearGradient>
<linearGradient id="paint23_linear_10764_11583" x1="282.673" y1="321.728" x2="336.155" y2="122.131" gradientUnits="userSpaceOnUse">
<stop stop-color="#5ABE48"/>
<stop offset="1" stop-color="#2045C3"/>
</linearGradient>
<linearGradient id="paint24_linear_10764_11583" x1="279.034" y1="321.737" x2="335.882" y2="123.482" gradientUnits="userSpaceOnUse">
<stop stop-color="#5ABE48"/>
<stop offset="1" stop-color="#2045C3"/>
</linearGradient>
<linearGradient id="paint25_linear_10764_11583" x1="275.408" y1="321.718" x2="335.593" y2="124.863" gradientUnits="userSpaceOnUse">
<stop stop-color="#5ABE48"/>
<stop offset="1" stop-color="#2045C3"/>
</linearGradient>
<linearGradient id="paint26_linear_10764_11583" x1="271.799" y1="321.672" x2="335.289" y2="126.271" gradientUnits="userSpaceOnUse">
<stop stop-color="#5ABE48"/>
<stop offset="1" stop-color="#2045C3"/>
</linearGradient>
<linearGradient id="paint27_linear_10764_11583" x1="268.206" y1="321.599" x2="334.968" y2="127.708" gradientUnits="userSpaceOnUse">
<stop stop-color="#5ABE48"/>
<stop offset="1" stop-color="#2045C3"/>
</linearGradient>
<linearGradient id="paint28_linear_10764_11583" x1="264.63" y1="321.499" x2="334.631" y2="129.173" gradientUnits="userSpaceOnUse">
<stop stop-color="#5ABE48"/>
<stop offset="1" stop-color="#2045C3"/>
</linearGradient>
<linearGradient id="paint29_linear_10764_11583" x1="261.07" y1="321.372" x2="334.276" y2="130.664" gradientUnits="userSpaceOnUse">
<stop stop-color="#5ABE48"/>
<stop offset="1" stop-color="#2045C3"/>
</linearGradient>
<linearGradient id="paint30_linear_10764_11583" x1="257.526" y1="321.22" x2="333.901" y2="132.184" gradientUnits="userSpaceOnUse">
<stop stop-color="#5ABE48"/>
<stop offset="1" stop-color="#2045C3"/>
</linearGradient>
<linearGradient id="paint31_linear_10764_11583" x1="254.003" y1="321.042" x2="333.512" y2="133.729" gradientUnits="userSpaceOnUse">
<stop stop-color="#5ABE48"/>
<stop offset="1" stop-color="#2045C3"/>
</linearGradient>
<linearGradient id="paint32_linear_10764_11583" x1="250.493" y1="320.837" x2="333.1" y2="135.3" gradientUnits="userSpaceOnUse">
<stop stop-color="#5ABE48"/>
<stop offset="1" stop-color="#2045C3"/>
</linearGradient>
<linearGradient id="paint33_linear_10764_11583" x1="247.004" y1="320.608" x2="332.67" y2="136.898" gradientUnits="userSpaceOnUse">
<stop stop-color="#5ABE48"/>
<stop offset="1" stop-color="#2045C3"/>
</linearGradient>
<linearGradient id="paint34_linear_10764_11583" x1="243.532" y1="320.355" x2="332.218" y2="138.522" gradientUnits="userSpaceOnUse">
<stop stop-color="#5ABE48"/>
<stop offset="1" stop-color="#2045C3"/>
</linearGradient>
<linearGradient id="paint35_linear_10764_11583" x1="240.084" y1="320.077" x2="331.751" y2="140.17" gradientUnits="userSpaceOnUse">
<stop stop-color="#5ABE48"/>
<stop offset="1" stop-color="#2045C3"/>
</linearGradient>
<linearGradient id="paint36_linear_10764_11583" x1="236.653" y1="319.775" x2="331.261" y2="141.843" gradientUnits="userSpaceOnUse">
<stop stop-color="#5ABE48"/>
<stop offset="1" stop-color="#2045C3"/>
</linearGradient>
<linearGradient id="paint37_linear_10764_11583" x1="233.24" y1="319.451" x2="330.749" y2="143.541" gradientUnits="userSpaceOnUse">
<stop stop-color="#5ABE48"/>
<stop offset="1" stop-color="#2045C3"/>
</linearGradient>
<linearGradient id="paint38_linear_10764_11583" x1="229.849" y1="319.102" x2="330.216" y2="145.261" gradientUnits="userSpaceOnUse">
<stop stop-color="#5ABE48"/>
<stop offset="1" stop-color="#2045C3"/>
</linearGradient>
<linearGradient id="paint39_linear_10764_11583" x1="226.477" y1="318.73" x2="329.66" y2="147.005" gradientUnits="userSpaceOnUse">
<stop stop-color="#5ABE48"/>
<stop offset="1" stop-color="#2045C3"/>
</linearGradient>
<linearGradient id="paint40_linear_10764_11583" x1="223.13" y1="318.338" x2="329.085" y2="148.773" gradientUnits="userSpaceOnUse">
<stop stop-color="#5ABE48"/>
<stop offset="1" stop-color="#2045C3"/>
</linearGradient>
<linearGradient id="paint41_linear_10764_11583" x1="219.8" y1="317.922" x2="328.484" y2="150.563" gradientUnits="userSpaceOnUse">
<stop stop-color="#5ABE48"/>
<stop offset="1" stop-color="#2045C3"/>
</linearGradient>
<linearGradient id="paint42_linear_10764_11583" x1="216.496" y1="317.485" x2="327.864" y2="152.375" gradientUnits="userSpaceOnUse">
<stop stop-color="#5ABE48"/>
<stop offset="1" stop-color="#2045C3"/>
</linearGradient>
<linearGradient id="paint43_linear_10764_11583" x1="213.212" y1="317.028" x2="327.219" y2="154.208" gradientUnits="userSpaceOnUse">
<stop stop-color="#5ABE48"/>
<stop offset="1" stop-color="#2045C3"/>
</linearGradient>
<linearGradient id="paint44_linear_10764_11583" x1="209.95" y1="316.551" x2="326.55" y2="156.064" gradientUnits="userSpaceOnUse">
<stop stop-color="#5ABE48"/>
<stop offset="1" stop-color="#2045C3"/>
</linearGradient>
<linearGradient id="paint45_linear_10764_11583" x1="206.713" y1="316.052" x2="325.859" y2="157.939" gradientUnits="userSpaceOnUse">
<stop stop-color="#5ABE48"/>
<stop offset="1" stop-color="#2045C3"/>
</linearGradient>
<linearGradient id="paint46_linear_10764_11583" x1="203.498" y1="315.534" x2="325.143" y2="159.835" gradientUnits="userSpaceOnUse">
<stop stop-color="#5ABE48"/>
<stop offset="1" stop-color="#2045C3"/>
</linearGradient>
<linearGradient id="paint47_linear_10764_11583" x1="200.303" y1="314.997" x2="324.4" y2="161.751" gradientUnits="userSpaceOnUse">
<stop stop-color="#5ABE48"/>
<stop offset="1" stop-color="#2045C3"/>
</linearGradient>
<linearGradient id="paint48_linear_10764_11583" x1="197.136" y1="314.441" x2="323.636" y2="163.685" gradientUnits="userSpaceOnUse">
<stop stop-color="#5ABE48"/>
<stop offset="1" stop-color="#2045C3"/>
</linearGradient>
<linearGradient id="paint49_linear_10764_11583" x1="193.991" y1="313.867" x2="322.844" y2="165.639" gradientUnits="userSpaceOnUse">
<stop stop-color="#5ABE48"/>
<stop offset="1" stop-color="#2045C3"/>
</linearGradient>
<linearGradient id="paint50_linear_10764_11583" x1="190.871" y1="313.275" x2="322.027" y2="167.611" gradientUnits="userSpaceOnUse">
<stop stop-color="#5ABE48"/>
<stop offset="1" stop-color="#2045C3"/>
</linearGradient>
<linearGradient id="paint51_linear_10764_11583" x1="187.777" y1="312.666" x2="321.187" y2="169.601" gradientUnits="userSpaceOnUse">
<stop stop-color="#5ABE48"/>
<stop offset="1" stop-color="#2045C3"/>
</linearGradient>
<linearGradient id="paint52_linear_10764_11583" x1="184.705" y1="312.04" x2="320.318" y2="171.608" gradientUnits="userSpaceOnUse">
<stop stop-color="#5ABE48"/>
<stop offset="1" stop-color="#2045C3"/>
</linearGradient>
<linearGradient id="paint53_linear_10764_11583" x1="181.661" y1="311.398" x2="319.427" y2="173.632" gradientUnits="userSpaceOnUse">
<stop stop-color="#5ABE48"/>
<stop offset="1" stop-color="#2045C3"/>
</linearGradient>
<linearGradient id="paint54_linear_10764_11583" x1="178.639" y1="310.739" x2="318.504" y2="175.672" gradientUnits="userSpaceOnUse">
<stop stop-color="#5ABE48"/>
<stop offset="1" stop-color="#2045C3"/>
</linearGradient>
<linearGradient id="paint55_linear_10764_11583" x1="175.646" y1="310.065" x2="317.56" y2="177.729" gradientUnits="userSpaceOnUse">
<stop stop-color="#5ABE48"/>
<stop offset="1" stop-color="#2045C3"/>
</linearGradient>
<linearGradient id="paint56_linear_10764_11583" x1="172.678" y1="309.376" x2="316.587" y2="179.8" gradientUnits="userSpaceOnUse">
<stop stop-color="#5ABE48"/>
<stop offset="1" stop-color="#2045C3"/>
</linearGradient>
<linearGradient id="paint57_linear_10764_11583" x1="169.73" y1="308.673" x2="315.582" y2="181.886" gradientUnits="userSpaceOnUse">
<stop stop-color="#5ABE48"/>
<stop offset="1" stop-color="#2045C3"/>
</linearGradient>
<linearGradient id="paint58_linear_10764_11583" x1="166.815" y1="307.956" x2="314.556" y2="183.987" gradientUnits="userSpaceOnUse">
<stop stop-color="#5ABE48"/>
<stop offset="1" stop-color="#2045C3"/>
</linearGradient>
<linearGradient id="paint59_linear_10764_11583" x1="163.928" y1="307.225" x2="313.504" y2="186.101" gradientUnits="userSpaceOnUse">
<stop stop-color="#5ABE48"/>
<stop offset="1" stop-color="#2045C3"/>
</linearGradient>
<linearGradient id="paint60_linear_10764_11583" x1="161.062" y1="306.481" x2="312.419" y2="188.229" gradientUnits="userSpaceOnUse">
<stop stop-color="#5ABE48"/>
<stop offset="1" stop-color="#2045C3"/>
</linearGradient>
<linearGradient id="paint61_linear_10764_11583" x1="158.225" y1="305.726" x2="311.308" y2="190.369" gradientUnits="userSpaceOnUse">
<stop stop-color="#5ABE48"/>
<stop offset="1" stop-color="#2045C3"/>
</linearGradient>
<linearGradient id="paint62_linear_10764_11583" x1="155.414" y1="304.958" x2="310.169" y2="192.523" gradientUnits="userSpaceOnUse">
<stop stop-color="#5ABE48"/>
<stop offset="1" stop-color="#2045C3"/>
</linearGradient>
<linearGradient id="paint63_linear_10764_11583" x1="152.631" y1="304.179" x2="309.002" y2="194.687" gradientUnits="userSpaceOnUse">
<stop stop-color="#5ABE48"/>
<stop offset="1" stop-color="#2045C3"/>
</linearGradient>
<linearGradient id="paint64_linear_10764_11583" x1="149.877" y1="303.388" x2="307.808" y2="196.862" gradientUnits="userSpaceOnUse">
<stop stop-color="#5ABE48"/>
<stop offset="1" stop-color="#2045C3"/>
</linearGradient>
<linearGradient id="paint65_linear_10764_11583" x1="147.143" y1="302.587" x2="306.58" y2="199.048" gradientUnits="userSpaceOnUse">
<stop stop-color="#5ABE48"/>
<stop offset="1" stop-color="#2045C3"/>
</linearGradient>
<linearGradient id="paint66_linear_10764_11583" x1="144.444" y1="301.777" x2="305.329" y2="201.245" gradientUnits="userSpaceOnUse">
<stop stop-color="#5ABE48"/>
<stop offset="1" stop-color="#2045C3"/>
</linearGradient>
<linearGradient id="paint67_linear_10764_11583" x1="141.771" y1="300.956" x2="304.049" y2="203.45" gradientUnits="userSpaceOnUse">
<stop stop-color="#5ABE48"/>
<stop offset="1" stop-color="#2045C3"/>
</linearGradient>
<linearGradient id="paint68_linear_10764_11583" x1="139.126" y1="300.127" x2="302.74" y2="205.664" gradientUnits="userSpaceOnUse">
<stop stop-color="#5ABE48"/>
<stop offset="1" stop-color="#2045C3"/>
</linearGradient>
<linearGradient id="paint69_linear_10764_11583" x1="136.505" y1="299.291" x2="301.399" y2="207.888" gradientUnits="userSpaceOnUse">
<stop stop-color="#5ABE48"/>
<stop offset="1" stop-color="#2045C3"/>
</linearGradient>
<linearGradient id="paint70_linear_10764_11583" x1="133.914" y1="298.445" x2="300.03" y2="210.119" gradientUnits="userSpaceOnUse">
<stop stop-color="#5ABE48"/>
<stop offset="1" stop-color="#2045C3"/>
</linearGradient>
<linearGradient id="paint71_linear_10764_11583" x1="131.354" y1="297.593" x2="298.636" y2="212.358" gradientUnits="userSpaceOnUse">
<stop stop-color="#5ABE48"/>
<stop offset="1" stop-color="#2045C3"/>
</linearGradient>
<linearGradient id="paint72_linear_10764_11583" x1="128.82" y1="296.733" x2="297.21" y2="214.603" gradientUnits="userSpaceOnUse">
<stop stop-color="#5ABE48"/>
<stop offset="1" stop-color="#2045C3"/>
</linearGradient>
<linearGradient id="paint73_linear_10764_11583" x1="126.311" y1="295.868" x2="295.753" y2="216.856" gradientUnits="userSpaceOnUse">
<stop stop-color="#5ABE48"/>
<stop offset="1" stop-color="#2045C3"/>
</linearGradient>
<linearGradient id="paint74_linear_10764_11583" x1="123.836" y1="294.996" x2="294.271" y2="219.113" gradientUnits="userSpaceOnUse">
<stop stop-color="#5ABE48"/>
<stop offset="1" stop-color="#2045C3"/>
</linearGradient>
<linearGradient id="paint75_linear_10764_11583" x1="121.385" y1="294.119" x2="292.756" y2="221.376" gradientUnits="userSpaceOnUse">
<stop stop-color="#5ABE48"/>
<stop offset="1" stop-color="#2045C3"/>
</linearGradient>
<linearGradient id="paint76_linear_10764_11583" x1="118.962" y1="293.238" x2="291.211" y2="223.645" gradientUnits="userSpaceOnUse">
<stop stop-color="#5ABE48"/>
<stop offset="1" stop-color="#2045C3"/>
</linearGradient>
<linearGradient id="paint77_linear_10764_11583" x1="116.569" y1="292.353" x2="289.64" y2="225.917" gradientUnits="userSpaceOnUse">
<stop stop-color="#5ABE48"/>
<stop offset="1" stop-color="#2045C3"/>
</linearGradient>
<linearGradient id="paint78_linear_10764_11583" x1="114.201" y1="291.463" x2="288.035" y2="228.192" gradientUnits="userSpaceOnUse">
<stop stop-color="#5ABE48"/>
<stop offset="1" stop-color="#2045C3"/>
</linearGradient>
<linearGradient id="paint79_linear_10764_11583" x1="111.867" y1="290.57" x2="286.406" y2="230.471" gradientUnits="userSpaceOnUse">
<stop stop-color="#5ABE48"/>
<stop offset="1" stop-color="#2045C3"/>
</linearGradient>
<linearGradient id="paint80_linear_10764_11583" x1="109.558" y1="289.674" x2="284.745" y2="232.752" gradientUnits="userSpaceOnUse">
<stop stop-color="#5ABE48"/>
<stop offset="1" stop-color="#2045C3"/>
</linearGradient>
<linearGradient id="paint81_linear_10764_11583" x1="107.278" y1="288.777" x2="283.055" y2="235.036" gradientUnits="userSpaceOnUse">
<stop stop-color="#5ABE48"/>
<stop offset="1" stop-color="#2045C3"/>
</linearGradient>
<linearGradient id="paint82_linear_10764_11583" x1="105.026" y1="287.877" x2="281.336" y2="237.32" gradientUnits="userSpaceOnUse">
<stop stop-color="#5ABE48"/>
<stop offset="1" stop-color="#2045C3"/>
</linearGradient>
<linearGradient id="paint83_linear_10764_11583" x1="102.801" y1="286.976" x2="279.586" y2="239.607" gradientUnits="userSpaceOnUse">
<stop stop-color="#5ABE48"/>
<stop offset="1" stop-color="#2045C3"/>
</linearGradient>
<linearGradient id="paint84_linear_10764_11583" x1="100.607" y1="286.075" x2="277.811" y2="241.893" gradientUnits="userSpaceOnUse">
<stop stop-color="#5ABE48"/>
<stop offset="1" stop-color="#2045C3"/>
</linearGradient>
<linearGradient id="paint85_linear_10764_11583" x1="98.4386" y1="285.173" x2="276.003" y2="244.179" gradientUnits="userSpaceOnUse">
<stop stop-color="#5ABE48"/>
<stop offset="1" stop-color="#2045C3"/>
</linearGradient>
<linearGradient id="paint86_linear_10764_11583" x1="96.2975" y1="284.272" x2="274.165" y2="246.465" gradientUnits="userSpaceOnUse">
<stop stop-color="#5ABE48"/>
<stop offset="1" stop-color="#2045C3"/>
</linearGradient>
<linearGradient id="paint87_linear_10764_11583" x1="94.1869" y1="283.372" x2="272.301" y2="248.751" gradientUnits="userSpaceOnUse">
<stop stop-color="#5ABE48"/>
<stop offset="1" stop-color="#2045C3"/>
</linearGradient>
<linearGradient id="paint88_linear_10764_11583" x1="92.1018" y1="282.473" x2="270.405" y2="251.033" gradientUnits="userSpaceOnUse">
<stop stop-color="#5ABE48"/>
<stop offset="1" stop-color="#2045C3"/>
</linearGradient>
<linearGradient id="paint89_linear_10764_11583" x1="90.0451" y1="281.578" x2="268.481" y2="253.316" gradientUnits="userSpaceOnUse">
<stop stop-color="#5ABE48"/>
<stop offset="1" stop-color="#2045C3"/>
</linearGradient>
<linearGradient id="paint90_linear_10764_11583" x1="88.0177" y1="280.682" x2="266.53" y2="255.593" gradientUnits="userSpaceOnUse">
<stop stop-color="#5ABE48"/>
<stop offset="1" stop-color="#2045C3"/>
</linearGradient>
<linearGradient id="paint91_linear_10764_11583" x1="86.0167" y1="279.79" x2="264.549" y2="257.869" gradientUnits="userSpaceOnUse">
<stop stop-color="#5ABE48"/>
<stop offset="1" stop-color="#2045C3"/>
</linearGradient>
<linearGradient id="paint92_linear_10764_11583" x1="84.0448" y1="278.902" x2="262.541" y2="260.141" gradientUnits="userSpaceOnUse">
<stop stop-color="#5ABE48"/>
<stop offset="1" stop-color="#2045C3"/>
</linearGradient>
<linearGradient id="paint93_linear_10764_11583" x1="82.0972" y1="278.018" x2="260.502" y2="262.409" gradientUnits="userSpaceOnUse">
<stop stop-color="#5ABE48"/>
<stop offset="1" stop-color="#2045C3"/>
</linearGradient>
<linearGradient id="paint94_linear_10764_11583" x1="80.1807" y1="277.136" x2="258.438" y2="264.671" gradientUnits="userSpaceOnUse">
<stop stop-color="#5ABE48"/>
<stop offset="1" stop-color="#2045C3"/>
</linearGradient>
<linearGradient id="paint95_linear_10764_11583" x1="78.2883" y1="276.261" x2="256.343" y2="266.93" gradientUnits="userSpaceOnUse">
<stop stop-color="#5ABE48"/>
<stop offset="1" stop-color="#2045C3"/>
</linearGradient>
<linearGradient id="paint96_linear_10764_11583" x1="76.423" y1="275.39" x2="254.22" y2="269.181" gradientUnits="userSpaceOnUse">
<stop stop-color="#5ABE48"/>
<stop offset="1" stop-color="#2045C3"/>
</linearGradient>
<linearGradient id="paint97_linear_10764_11583" x1="74.5856" y1="274.526" x2="252.07" y2="271.428" gradientUnits="userSpaceOnUse">
<stop stop-color="#5ABE48"/>
<stop offset="1" stop-color="#2045C3"/>
</linearGradient>
<linearGradient id="paint98_linear_10764_11583" x1="72.777" y1="273.667" x2="249.895" y2="273.667" gradientUnits="userSpaceOnUse">
<stop stop-color="#5ABE48"/>
<stop offset="1" stop-color="#2045C3"/>
</linearGradient>
</defs>
</svg>
