<svg width="547" height="634" viewBox="0 0 547 634" fill="none" xmlns="http://www.w3.org/2000/svg">
<path d="M498.684 4H48.9713L4 66.6M498.684 4L543.655 66.6L363.77 317M498.684 4L318.799 254.4M4 66.6H363.77L273.828 191.8L228.856 129.2M4 66.6L228.856 379.6L48.9713 630M4 66.6L318.799 504.8H228.856H408.741L138.914 129.2M228.856 129.2L408.741 379.6M228.856 129.2L543.655 567.4M318.799 129.2H138.914M138.914 129.2L318.799 379.6M543.655 567.4L498.684 630H48.9713M543.655 567.4H183.885L273.828 442.2M48.9713 630L4 567.4L183.885 317" stroke="url(#paint0_linear_11357_13277)" stroke-opacity="0.2" stroke-width="6.5039" stroke-linecap="round" stroke-linejoin="round"/>
<defs>
<linearGradient id="paint0_linear_11357_13277" x1="440.486" y1="70.7426" x2="1.1498" y2="449.481" gradientUnits="userSpaceOnUse">
<stop stop-color="#04FFFE"/>
<stop offset="1" stop-color="#2AC870"/>
</linearGradient>
</defs>
</svg>