<svg width="390" height="517" viewBox="0 0 390 517" fill="none" xmlns="http://www.w3.org/2000/svg">
<mask id="mask0_11381_15355" style="mask-type:alpha" maskUnits="userSpaceOnUse" x="-135" y="144" width="659" height="229">
<path opacity="0.7" fill-rule="evenodd" clip-rule="evenodd" d="M-117.545 169.758C-98.9224 178.577 -61.6781 203.283 -61.6781 231.558C-61.6781 233.537 -61.7094 235.864 -61.7446 238.487C-62.3387 282.699 -64.0578 410.651 64.0213 362.226C82.1503 355.371 100.778 348.705 119.091 342.15C144.317 333.122 168.944 324.308 190.846 315.512C268.603 360.2 341.025 388.251 421.72 328.476C530.594 247.825 560.84 109.825 470.672 158.043C454.854 168.175 409.303 189.024 353.652 191.363C349.757 191.527 345.173 191.704 340.009 191.903C306.289 193.204 247.835 195.459 195.014 201.257C42.9136 144.911 -201.412 122.273 -117.545 169.758Z" fill="url(#paint0_linear_11381_15355)"/>
</mask>
<g mask="url(#mask0_11381_15355)">
<rect x="-9.26807" y="-19.6389" width="17.175" height="566.775" stroke="#393953" stroke-opacity="0.3" stroke-width="0.715625"/>
<rect x="7.90723" y="-19.6389" width="17.175" height="566.775" stroke="#393953" stroke-opacity="0.3" stroke-width="0.715625"/>
<rect x="25.082" y="-19.6389" width="17.175" height="566.775" stroke="#393953" stroke-opacity="0.3" stroke-width="0.715625"/>
<rect x="42.2568" y="-19.6389" width="17.175" height="566.775" stroke="#393953" stroke-opacity="0.3" stroke-width="0.715625"/>
<rect x="59.4321" y="-19.6389" width="17.175" height="566.775" stroke="#393953" stroke-opacity="0.3" stroke-width="0.715625"/>
<rect x="76.6069" y="-19.6389" width="17.175" height="566.775" stroke="#393953" stroke-opacity="0.3" stroke-width="0.715625"/>
<rect x="93.7817" y="-19.6389" width="17.175" height="566.775" stroke="#393953" stroke-opacity="0.3" stroke-width="0.715625"/>
<rect x="110.957" y="-19.6389" width="17.175" height="566.775" stroke="#393953" stroke-opacity="0.3" stroke-width="0.715625"/>
<rect x="128.132" y="-19.6389" width="17.175" height="566.775" stroke="#393953" stroke-opacity="0.3" stroke-width="0.715625"/>
<rect x="145.307" y="-19.6389" width="17.175" height="566.775" stroke="#393953" stroke-opacity="0.3" stroke-width="0.715625"/>
<rect x="162.482" y="-19.6389" width="17.175" height="566.775" stroke="#393953" stroke-opacity="0.3" stroke-width="0.715625"/>
<rect x="179.657" y="-19.6389" width="17.175" height="566.775" stroke="#393953" stroke-opacity="0.3" stroke-width="0.715625"/>
<rect x="196.832" y="-19.6389" width="17.175" height="566.775" stroke="#393953" stroke-opacity="0.3" stroke-width="0.715625"/>
<rect x="214.007" y="-19.6389" width="17.175" height="566.775" stroke="#393953" stroke-opacity="0.3" stroke-width="0.715625"/>
<rect x="231.182" y="-19.6389" width="17.175" height="566.775" stroke="#393953" stroke-opacity="0.3" stroke-width="0.715625"/>
<rect x="248.357" y="-19.6389" width="17.175" height="566.775" stroke="#393953" stroke-opacity="0.3" stroke-width="0.715625"/>
<rect x="265.532" y="-19.6389" width="17.175" height="566.775" stroke="#393953" stroke-opacity="0.3" stroke-width="0.715625"/>
<rect x="282.707" y="-19.6389" width="17.175" height="566.775" stroke="#393953" stroke-opacity="0.3" stroke-width="0.715625"/>
<rect x="299.882" y="-19.6389" width="17.175" height="566.775" stroke="#393953" stroke-opacity="0.3" stroke-width="0.715625"/>
<rect x="317.057" y="-19.6389" width="17.175" height="566.775" stroke="#393953" stroke-opacity="0.3" stroke-width="0.715625"/>
<rect x="334.232" y="-19.6389" width="17.175" height="566.775" stroke="#393953" stroke-opacity="0.3" stroke-width="0.715625"/>
<rect x="351.407" y="-19.6389" width="17.175" height="566.775" stroke="#393953" stroke-opacity="0.3" stroke-width="0.715625"/>
<rect x="368.582" y="-19.6389" width="17.175" height="566.775" stroke="#393953" stroke-opacity="0.3" stroke-width="0.715625"/>
<rect x="385.757" y="-19.6389" width="17.175" height="566.775" stroke="#393953" stroke-opacity="0.3" stroke-width="0.715625"/>
<rect x="-318.418" y="152.111" width="17.175" height="1030.5" transform="rotate(-90 -318.418 152.111)" stroke="#393953" stroke-opacity="0.3" stroke-width="0.715625"/>
<rect x="-318.418" y="169.286" width="17.175" height="1030.5" transform="rotate(-90 -318.418 169.286)" stroke="#393953" stroke-opacity="0.3" stroke-width="0.715625"/>
<rect x="-318.418" y="186.461" width="17.175" height="1030.5" transform="rotate(-90 -318.418 186.461)" stroke="#393953" stroke-opacity="0.3" stroke-width="0.715625"/>
<rect x="-318.418" y="203.636" width="17.175" height="1030.5" transform="rotate(-90 -318.418 203.636)" stroke="#393953" stroke-opacity="0.3" stroke-width="0.715625"/>
<rect x="-318.418" y="220.811" width="17.175" height="1030.5" transform="rotate(-90 -318.418 220.811)" stroke="#393953" stroke-opacity="0.3" stroke-width="0.715625"/>
<rect x="-318.418" y="237.986" width="17.175" height="1030.5" transform="rotate(-90 -318.418 237.986)" stroke="#393953" stroke-opacity="0.3" stroke-width="0.715625"/>
<rect x="-318.418" y="255.161" width="17.175" height="1030.5" transform="rotate(-90 -318.418 255.161)" stroke="#393953" stroke-opacity="0.3" stroke-width="0.715625"/>
<rect x="-318.418" y="272.336" width="17.175" height="1030.5" transform="rotate(-90 -318.418 272.336)" stroke="#393953" stroke-opacity="0.3" stroke-width="0.715625"/>
<rect x="-318.418" y="289.511" width="17.175" height="1030.5" transform="rotate(-90 -318.418 289.511)" stroke="#393953" stroke-opacity="0.3" stroke-width="0.715625"/>
<rect x="-318.418" y="306.686" width="17.175" height="1030.5" transform="rotate(-90 -318.418 306.686)" stroke="#393953" stroke-opacity="0.3" stroke-width="0.715625"/>
<rect x="-318.418" y="323.861" width="17.175" height="1030.5" transform="rotate(-90 -318.418 323.861)" stroke="#393953" stroke-opacity="0.3" stroke-width="0.715625"/>
<rect x="-318.418" y="341.036" width="17.175" height="1030.5" transform="rotate(-90 -318.418 341.036)" stroke="#393953" stroke-opacity="0.3" stroke-width="0.715625"/>
<rect x="-318.418" y="358.211" width="17.175" height="1030.5" transform="rotate(-90 -318.418 358.211)" stroke="#393953" stroke-opacity="0.3" stroke-width="0.715625"/>
<rect x="-318.418" y="375.386" width="17.175" height="1030.5" transform="rotate(-90 -318.418 375.386)" stroke="#393953" stroke-opacity="0.3" stroke-width="0.715625"/>
</g>
<defs>
<linearGradient id="paint0_linear_11381_15355" x1="516.836" y1="129.529" x2="370.811" y2="429.16" gradientUnits="userSpaceOnUse">
<stop stop-color="white"/>
<stop offset="1" stop-color="white"/>
</linearGradient>
</defs>
</svg>
